<?xml version="1.0" encoding="utf-8"?>
<!-- Generator: Adobe Illustrator 22.0.1, SVG Export Plug-In . SVG Version: 6.00 Build 0)  -->
<svg version="1.1" id="Layer_1" xmlns="http://www.w3.org/2000/svg" xmlns:xlink="http://www.w3.org/1999/xlink" x="0px" y="0px"
	 viewBox="0 0 260 260" style="enable-background:new 0 0 260 260;" xml:space="preserve">
<style type="text/css">
	.st0{fill:#6B352E;}
	.st1{fill:#F89521;}
	.st2{fill:#F0E6D5;}
</style>
<circle class="st0" cx="129.5" cy="130" r="128.5"/>
<g>
	<g>
		<g>
			<path class="st1" d="M85.1,92.9c-0.8,0.4-2,0-2.4-0.8c-2.4-4.4-9.1-19.5,0.8-34.6c4-6.4,7.6-9.5,9.9-11.9c4-3.6,4.8-4.4,2.4-13.1
				c0-0.8,0-1.2,0.8-1.6l0.4,0c0.8-0.4,1.6-0.4,2.4,0c2.4,2,6.8,7.2,5.2,17.9c-0.8,5.6-4.8,10.3-8.8,15.9c-6,7.6-11.9,15.9-9.5,26.3
				C86.3,91.7,85.9,92.5,85.1,92.9L85.1,92.9z"/>
		</g>
		<g>
			<path class="st1" d="M162.2,112.4c-0.4-0.8-0.4-1.6,0-2.4c3.2-3.6,13.1-16.3,8.8-34.6c-2-8.8-5.2-13.9-8-18.7
				c-4.4-7.2-6.8-14.7-5.6-21.5c1.2-6.8,3.6,0.8,13.9,8.4c4,2.8,22.7,17.5,21.1,36.6c-1.2,11.9-10.3,22.7-27,32.2
				C164.2,113.2,163,113.2,162.2,112.4L162.2,112.4z"/>
		</g>
		<g>
			<path class="st1" d="M127.2,117.5L127.2,117.5c-17.1,0-31.4-10.7-33-25.1c-1.2-9.9,4-19.9,13.5-25.9c0.8-0.4,2-0.4,2.8,0.4l0,0
				c0.8,0.4,0.8,1.2,0.4,2c-1.2,1.6-1.6,3.6-1.6,5.6c0.8,4.8,5.2,8,10.7,8c0.4,0,0.8,0,1.2,0c5.6-0.4,9.9-4.8,9.5-9.5c0,0,0,0,0-0.4
				c-0.8-3.6-3.2-7.6-6-11.5c-4-6-8.4-13.1-7.6-19.9c1.6-13.9,16.7-27,21.1-31c0.8-0.8,2-0.8,2.8,0l0,0c0.8,0.4,0.8,1.2,0.8,2
				c-1.2,2.8-4,11.1-1.2,24.3c2.4,12.7,6.4,17.9,10.3,23.1c1.2,1.6,2.4,3.2,3.6,4.8l0.8,0.8c4.4,6.8,7.6,11.9,6.4,23.9
				c-1.2,12.7-11.9,26.7-30.2,28.2C129.6,117.5,128.4,117.5,127.2,117.5z"/>
		</g>
	</g>
	<g>
		<path class="st2" d="M116.1,243.2c0.8,1.6,1.2,3.2,2.8,4.4c2.8,1.6,10.3,2.8,13.9,2.8l0,0c4.8,0,15.9-2,16.3-4.4
			c0.4-1.2,0.4-2.4-0.4-3.6l-36.6-73.2c-0.4-0.8-1.6-1.2-2.8-0.8c-7.2,4-15.9,5.2-24.3,3.6c-0.4,0-0.4,0-0.4,0
			c-0.8,0-1.2,0.4-1.6,0.8c0,0.4-0.4,0.8,0,1.2C95.8,196.3,107,219.4,116.1,243.2z"/>
		<path class="st2" d="M198,145c13.1-9.1,17.9-18.3,20.3-22.3c4.8-8.4,6.8-17.5,5.2-25.1c-2-11.1-10.7-21.1-23.5-27.8
			c5.6,8,7.2,18.7,3.2,28.2c-4,9.9-12.3,18.7-24.3,24.3c-7.2,3.6-15.9,6.4-26.7,8c-1.2,0.4-2.4,1.2-2.8,2c-0.4,1.2-0.4,2,0.4,2.8
			c2,2.8,8.8,17.1,11.9,15.5C180.9,142.6,188.9,151.3,198,145z"/>
		<path class="st2" d="M138,194.3c4.4,9.1,9.5,20.7,15.5,31.4c0.8,1.2,1.2,2,2,2c0,0,0,0,0.4,0c1.6,0,3.6-4.4,4.4-6.4
			c0.4-0.4,0.4-0.8,0.4-1.2l5.6-11.9c1.2-2.4,15.9-32.2,16.3-34.6c0.4-2.4-23.1,6-33-19.9c-2.4-6.4-8.8-12.7-16.3-17.9
			c-8.4-5.6-18.7-8-28.6-10.3c-2.8-0.8-6-1.2-8.8-2c-11.9-3.2-27-9.5-31.8-21.9c-4.4-11.1,0.4-22.7,6.4-33.8
			c-8.8,2.8-19.5,7.6-27.4,17.1c-7.6,9.5-9.9,21.5-6.4,31c6,15.9,26.3,23.5,40.6,27.8l3.6,1.2c16.3,4.8,33.4,9.5,43.4,22.3
			c3.2,4,5.6,8.8,7.6,13.5c0.8,1.2,1.2,2.8,2,4C134.8,187.5,136.4,190.7,138,194.3z"/>
	</g>
</g>
</svg>
