<?xml version="1.0" encoding="utf-8"?>
<!-- Generator: Adobe Illustrator 22.0.1, SVG Export Plug-In . SVG Version: 6.00 Build 0)  -->
<svg version="1.1" id="Layer_1" xmlns="http://www.w3.org/2000/svg" xmlns:xlink="http://www.w3.org/1999/xlink" x="0px" y="0px"
	 viewBox="0 0 114 104" style="enable-background:new 0 0 114 104;" xml:space="preserve">
<style type="text/css">
	.st0{fill:#FFFFFF;}
	.st1{fill:none;stroke:#231F20;stroke-width:0.4134;stroke-linecap:round;stroke-linejoin:round;stroke-miterlimit:10;}
	.st2{clip-path:url(#SVGID_2_);}
	.st3{fill:#F7941D;}
	.st4{fill:none;stroke:#6B352D;stroke-width:0.4857;stroke-linecap:round;stroke-linejoin:round;stroke-miterlimit:10;}
	.st5{fill:none;stroke:#6B352D;stroke-width:0.4134;stroke-linecap:round;stroke-linejoin:round;stroke-miterlimit:10;}
	.st6{fill:none;stroke:#6B352D;stroke-width:0.9646;stroke-linecap:round;stroke-linejoin:round;stroke-miterlimit:10;}
	.st7{fill:#6B352D;stroke:#6B352D;stroke-width:0.1378;stroke-miterlimit:10;}
	.st8{fill:#FFFFFF;stroke:#6B352D;stroke-width:2.408;stroke-linecap:round;stroke-linejoin:round;stroke-miterlimit:10;}
	.st9{fill:none;stroke:#6B352D;stroke-width:1.1333;stroke-linecap:round;stroke-linejoin:round;stroke-miterlimit:10;}
	.st10{fill:#FFFFFF;stroke:#6B352D;stroke-width:0.9646;stroke-linecap:round;stroke-linejoin:round;stroke-miterlimit:10;}
	.st11{fill:none;}
	.st12{fill:#6B352D;}
	.st13{fill:none;stroke:#6B352D;stroke-width:0.8268;stroke-linecap:round;stroke-linejoin:round;stroke-miterlimit:10;}
	.st14{fill:#6B352D;stroke:#6B352D;stroke-width:1.204;stroke-linecap:round;stroke-linejoin:round;stroke-miterlimit:10;}
	.st15{fill:none;stroke:#F7941D;stroke-width:0.2007;stroke-miterlimit:10;}
</style>
<g>
	<path class="st0" d="M5.5,51.1L6.3,46c0-0.3,0.3-0.5,0.6-0.4l1,0.2c0.3,0,0.5,0.3,0.4,0.6l-0.5,3c0,0.3,0.2,0.6,0.4,0.6L8.8,50
		c0.3,0,0.6-0.2,0.6-0.4l0.4-2.3c0-0.3,0.3-0.5,0.6-0.4l0.9,0.1c0.3,0,0.5,0.3,0.4,0.6l-0.4,2.3c0,0.3,0.2,0.6,0.4,0.6l1.8,0.3
		c0.3,0,0.5,0.3,0.4,0.6l-0.2,1.1c0,0.3-0.3,0.5-0.6,0.4L6,51.7C5.7,51.7,5.5,51.4,5.5,51.1z"/>
	<path class="st0" d="M8.8,39l6.9,2.5c0.3,0.1,0.4,0.4,0.3,0.7l-0.4,1c-0.1,0.3-0.4,0.4-0.7,0.3L8.1,41c-0.3-0.1-0.4-0.4-0.3-0.7
		l0.4-1C8.2,39,8.5,38.9,8.8,39z"/>
	<path class="st0" d="M12.3,30.3c1.1-1.8,2.8-2,4.3-1.1c0.9,0.5,1.5,1.3,1.5,2.3c0,0.3,0.3,0.5,0.6,0.5l1.5-0.1
		c0.4,0,0.7,0.4,0.5,0.8L20,33.8c-0.1,0.1-0.2,0.2-0.4,0.3l-2.2,0.2c-0.2,0-0.3,0.1-0.4,0.3l-0.1,0.2c-0.2,0.3-0.1,0.6,0.2,0.7
		l1,0.6c0.3,0.2,0.3,0.5,0.2,0.7l-0.6,0.9c-0.2,0.3-0.5,0.3-0.7,0.2l-6.3-3.8c-0.3-0.2-0.3-0.5-0.2-0.7L12.3,30.3z M13.4,33.3l1,0.6
		c0.3,0.2,0.6,0.1,0.7-0.2l0.7-1.1c0.4-0.7,0.2-1.3-0.3-1.6c-0.6-0.3-1.1-0.3-1.6,0.4l-0.7,1.1C13.1,32.8,13.1,33.2,13.4,33.3z"/>
	<path class="st0" d="M17.4,23l3.8-3.8c0.2-0.2,0.6-0.2,0.8,0l0.7,0.7c0.2,0.2,0.2,0.6,0,0.8l-2.3,2.3c-0.2,0.2-0.2,0.5,0,0.8
		l0.1,0.1c0.2,0.2,0.6,0.2,0.8,0l1.7-1.7c0.2-0.2,0.6-0.2,0.8,0l0.6,0.6c0.2,0.2,0.2,0.6,0,0.8l-1.7,1.7c-0.2,0.2-0.2,0.5,0,0.8l0,0
		c0.2,0.2,0.6,0.2,0.8,0l2.3-2.3c0.2-0.2,0.6-0.2,0.8,0l0.7,0.7c0.2,0.2,0.2,0.6,0,0.8l-3.8,3.8c-0.2,0.2-0.6,0.2-0.8,0l-5.2-5.2
		C17.2,23.5,17.2,23.2,17.4,23z"/>
	<path class="st0" d="M35.4,10.3l5.7,5.5c0.3,0.3,0.2,0.7-0.2,0.9l-1.1,0.5c-0.2,0.1-0.4,0-0.6-0.1l-0.4-0.4
		c-0.2-0.2-0.4-0.2-0.6-0.1l-2.4,1c-0.2,0.1-0.3,0.3-0.3,0.5l0,0.6c0,0.2-0.1,0.4-0.3,0.5l-1.1,0.5c-0.4,0.2-0.7-0.1-0.8-0.5
		l-0.2-7.9c0-0.2,0.1-0.4,0.3-0.5l1.3-0.6C35,10.1,35.2,10.2,35.4,10.3z M35.3,14.5l0,0.4c0,0.4,0.4,0.6,0.8,0.5l0.3-0.1
		c0.3-0.2,0.4-0.6,0.2-0.9l-0.3-0.3C35.9,13.7,35.3,14,35.3,14.5z"/>
	<path class="st0" d="M44.3,14.8l-1-7.2c0-0.3,0.2-0.6,0.5-0.6l1-0.1c0.2,0,0.3,0,0.4,0.1l3.1,2.9c0.4,0.3,1,0,0.9-0.5l-0.4-2.6
		c0-0.3,0.2-0.6,0.5-0.6l1.1-0.1c0.3,0,0.6,0.2,0.6,0.5l1,7.2c0,0.3-0.2,0.6-0.5,0.6l-1,0.1c-0.2,0-0.3,0-0.4-0.1L47,11.5
		c-0.4-0.3-1,0-0.9,0.5l0.4,2.6c0,0.3-0.2,0.6-0.5,0.6l-1.1,0.1C44.6,15.3,44.3,15.1,44.3,14.8z"/>
	<path class="st0" d="M56.6,6.2c0-0.3,0.3-0.5,0.6-0.5l3.3,0.4c2.6,0.3,3.7,2.4,3.4,4.7c-0.3,2.3-1.9,4-4.5,3.7L56.1,14
		c-0.3,0-0.5-0.3-0.5-0.6L56.6,6.2z M58.5,8.5l-0.4,3.1c0,0.3,0.2,0.6,0.5,0.6l1,0.1c1.3,0.2,2.1-0.6,2.2-1.9
		c0.2-1.2-0.4-2.2-1.7-2.3l-1-0.1C58.8,8,58.5,8.2,58.5,8.5z"/>
	<path class="st0" d="M76.3,10.4l4.5,2.5c0.3,0.1,0.4,0.5,0.2,0.7l-0.5,0.9c-0.1,0.3-0.5,0.4-0.7,0.2l-2.6-1.5
		c-0.3-0.1-0.6-0.1-0.7,0.2l-0.2,0.4c-0.1,0.3-0.1,0.6,0.2,0.7l2.1,1.1c0.3,0.1,0.4,0.5,0.2,0.7l-0.4,0.8c-0.1,0.3-0.5,0.4-0.7,0.2
		l-2.1-1.1c-0.3-0.1-0.6-0.1-0.7,0.2L73.8,18c-0.1,0.3-0.5,0.4-0.7,0.2l-0.9-0.5c-0.3-0.1-0.4-0.5-0.2-0.7l3.6-6.4
		C75.7,10.3,76,10.2,76.3,10.4z"/>
	<path class="st0" d="M86,16.3l4,3.6c0.2,0.2,0.2,0.5,0,0.8l-0.7,0.7c-0.2,0.2-0.5,0.2-0.8,0l-2.4-2.2c-0.2-0.2-0.6-0.2-0.8,0
		l-0.1,0.1c-0.2,0.2-0.2,0.6,0,0.8l1.8,1.7c0.2,0.2,0.2,0.5,0,0.8l-0.6,0.6c-0.2,0.2-0.5,0.2-0.8,0L84,21.6c-0.2-0.2-0.6-0.2-0.8,0
		l0,0c-0.2,0.2-0.2,0.6,0,0.8l2.4,2.2c0.2,0.2,0.2,0.5,0,0.8L85,26.1c-0.2,0.2-0.5,0.2-0.8,0l-4-3.6c-0.2-0.2-0.2-0.5,0-0.8l5-5.4
		C85.4,16.1,85.8,16.1,86,16.3z"/>
	<path class="st0" d="M96.6,28.6L92.1,35c-0.2,0.3-0.7,0.3-0.9,0l-0.6-1c-0.1-0.2-0.1-0.4,0-0.6l0.3-0.5c0.1-0.2,0.1-0.4,0-0.6
		l-1.4-2.1C89.4,30,89.2,29.9,89,30l-0.6,0.1c-0.2,0-0.4,0-0.6-0.2l-0.6-1c-0.2-0.3,0-0.7,0.3-0.8l7.8-1.5c0.2,0,0.4,0.1,0.6,0.2
		l0.8,1.2C96.8,28.1,96.8,28.4,96.6,28.6z M92.5,29.2l-0.4,0.1c-0.4,0.1-0.5,0.5-0.3,0.8l0.2,0.2c0.2,0.3,0.7,0.3,0.9,0l0.2-0.3
		C93.4,29.6,93,29.1,92.5,29.2z"/>
	<path class="st0" d="M95.7,38.4c0.1,0.1,0,0.3-0.1,0.4c-0.2,0.2-0.3,0.7-0.1,1.5c0.3,0.8,0.6,0.9,0.8,0.8c0.3-0.1,0.4-0.6,0.4-1.7
		c0-1.4,0-3.3,1.7-3.8c1.5-0.5,2.9,0.4,3.5,2.2c0.6,1.7,0.2,3.2-1,3.9c-0.2,0.1-0.5,0-0.6-0.2l-0.4-1.2c-0.1-0.2,0-0.4,0.1-0.5
		c0.3-0.2,0.4-0.7,0.2-1.4c-0.2-0.7-0.6-0.9-0.9-0.8C99,37.9,99,38.3,99,39.4c0,1.2,0,3.3-1.8,3.9c-1.6,0.5-2.8-0.5-3.5-2.3
		c-0.6-1.7-0.4-3.3,0.8-4c0.2-0.1,0.5,0,0.6,0.2L95.7,38.4z"/>
	<path class="st0" d="M104.4,46.5l0.6,6.1c0,0.3-0.2,0.6-0.6,0.7l-0.8,0.1c-0.3,0-0.6-0.2-0.7-0.6l-0.1-1.4c0-0.3-0.3-0.6-0.7-0.6
		L97,51.3c-0.3,0-0.6-0.2-0.7-0.6l-0.1-0.9c0-0.3,0.2-0.6,0.6-0.7l5.1-0.5c0.3,0,0.6-0.3,0.6-0.7l-0.1-1.4c0-0.3,0.2-0.6,0.6-0.7
		l0.8-0.1C104,45.9,104.3,46.1,104.4,46.5z"/>
</g>
<path class="st1" d="M14.5,82.5"/>
<g>
	<defs>
		<circle id="SVGID_1_" cx="55.5" cy="55.6" r="37"/>
	</defs>
	<clipPath id="SVGID_2_">
		<use xlink:href="#SVGID_1_"  style="overflow:visible;"/>
	</clipPath>
	<g class="st2">
		<path class="st3" d="M55.4,16.7c-5.3,0-10.4,1.2-15,3.3l11.8,33.2l14.6,10.2l1.6,3.1l0.1,4.1l-0.9,0.6l0.2,4l-2.1,0.8l-0.5-3.8
			L34.6,87.9c5.9,4.2,13.1,6.7,20.8,6.7c20.4,0,37-17.4,37-38.9S75.8,16.7,55.4,16.7z"/>
		<g>
			<line class="st4" x1="79.7" y1="21.6" x2="56.6" y2="27.7"/>
			<line class="st4" x1="54.6" y1="28.2" x2="47.7" y2="30.1"/>
			<line class="st4" x1="47.1" y1="34.7" x2="62.8" y2="30.4"/>
			<line class="st4" x1="65.4" y1="29.6" x2="86.6" y2="24.2"/>
			<line class="st4" x1="89.4" y1="27.1" x2="70.4" y2="32.1"/>
			<line class="st4" x1="55.2" y1="40" x2="61" y2="38.4"/>
			<line class="st5" x1="64.8" y1="37.3" x2="74.4" y2="34.9"/>
			<line class="st4" x1="80.3" y1="33.3" x2="90.3" y2="30.7"/>
			<line class="st4" x1="65.7" y1="46.2" x2="89.6" y2="39.4"/>
			<line class="st5" x1="72.8" y1="46.5" x2="65.5" y2="48.7"/>
			<line class="st4" x1="82.6" y1="46.3" x2="91.9" y2="43.4"/>
			<line class="st4" x1="89.2" y1="49.8" x2="65.6" y2="56.8"/>
			<line class="st4" x1="69.6" y1="62.1" x2="78.1" y2="59.4"/>
			<line class="st4" x1="79.9" y1="58.8" x2="83" y2="57.8"/>
			<line class="st4" x1="51.7" y1="84.4" x2="89.7" y2="70.8"/>
			<line class="st4" x1="46.8" y1="93.3" x2="88.4" y2="79.2"/>
			<line class="st6" x1="89.2" y1="87.5" x2="54" y2="99.6"/>
			<line class="st5" x1="70.8" y1="70.3" x2="77.6" y2="68.2"/>
			<line class="st5" x1="80.7" y1="67.2" x2="87.6" y2="65"/>
			<line class="st5" x1="57.7" y1="24.7" x2="69.6" y2="21.7"/>
		</g>
		<path class="st7" d="M66.5,73.5l-1.2,5.2c0,0-1.3,0.6-3,1.2c-1.4,0.5-8.9,2.6-8.8,3.2c0.1,0.6,12.9-4.1,12.9-4.1s-2.2,1.2-2.8,2.7
			c-0.1,0.1-0.1,0.3-0.2,0.4c-0.1,0.3-0.3,0.5-0.3,0.8c-0.1,1,4.8-1.2,5.4-1c0.6,0.1-3.7,1.3-5.4,2.1c-1.2,0.4-1.2,2.7-1.3,2.9
			c-0.2,0.4-2.4,1.1-4.8,2.1c-1.5,0.6-3.2,1.2-4.6,1.8c-2,0.8-3.9,1.3-3.9,1.5c0,0.3,11.6-3.8,11.6-3.8l-1.1,3l2.5-0.3l-2.7,1.5
			L56,100c-0.3-0.1-30.3-0.8-31.4,0l0-25.8l39.6-4.7L66.5,73.5z"/>
		<polygon class="st8" points="40.1,19 52.3,53.2 66.9,63.5 68.4,66.6 68.5,68.9 67.6,70.6 67.8,76.6 63.8,78 63.8,70.9 32,86.9 
			35.6,89.2 36.4,91.2 34.1,92.5 30.4,89.9 28.4,91 25.4,91.9 8.2,60.1 8.7,27.5 21.6,22.6 27.7,19.5 33.9,18.1 		"/>
		<g>
			<line class="st9" x1="32.4" y1="32.7" x2="39.2" y2="49.2"/>
			<line class="st9" x1="35.2" y1="25.4" x2="44.1" y2="47.7"/>
			<line class="st9" x1="29.5" y1="39.3" x2="33.1" y2="48.4"/>
			<line class="st9" x1="29.1" y1="52" x2="26.4" y2="46.4"/>
		</g>
		<polygon class="st10" points="64.2,76.3 62,74.9 62,72.2 64.2,71.6 		"/>
		<line class="st9" x1="39.9" y1="50.8" x2="40.6" y2="52.3"/>
		<line class="st9" x1="45" y1="49.8" x2="45.5" y2="51"/>
		<line class="st9" x1="34.1" y1="50.8" x2="35.1" y2="53.3"/>
		<line class="st9" x1="30.7" y1="55.5" x2="30" y2="53.9"/>
		<line class="st9" x1="26" y1="58.4" x2="24.3" y2="54.7"/>
		<ellipse class="st11" cx="55.5" cy="55.6" rx="37" ry="38.9"/>
		<polygon class="st12" points="42.9,28.8 46.8,41.1 50.2,43.4 43.9,26.3 		"/>
		<g>
			<line class="st13" x1="54.7" y1="58.8" x2="51.5" y2="60.3"/>
			<polyline class="st13" points="58,61.2 53,63.6 45,67.4 41.8,68.9 33.4,72.8 29.1,74.9 			"/>
			<polyline class="st13" points="46.3,62.7 35.5,67.7 32.1,69.3 26,72.1 			"/>
			<line class="st13" x1="41.1" y1="58.2" x2="31.4" y2="62.7"/>
			<line class="st13" x1="48.3" y1="58" x2="40.6" y2="61.5"/>
			<polyline class="st13" points="52.1,68.3 40.1,73.9 34.8,76.4 28.7,79.3 			"/>
			<polyline class="st12" points="31.2,83.3 68,65.5 67.4,69.8 33.1,86.5 31.2,83.3 			"/>
			<line class="st13" x1="59.9" y1="64.5" x2="55" y2="66.8"/>
			<path class="st9" d="M26.5,61.4c-1.1,0.9-2.1,1.9-3.1,3"/>
			<path class="st9" d="M34.7,56.4c-1.8,0.8-3.6,1.8-5.3,2.9"/>
			<path class="st9" d="M52.3,53.9c-4-0.8-7.7-0.5-11.4,0.4"/>
		</g>
		<path class="st14" d="M48.6,37.1c0,0,4.7,3.3,6.2,5c1.2,1.3,0.4,6.1,1.3,7.3c1.2,2.5,5.1,10,8,14.7c2.9,4.7,8.7,1.2,8.7,1.2
			c3-1.8,1.2-4.6,1.2-4.6s-5.4-9.3-9.2-14.4c-1.7-2.4-3.9-4.4-5.2-5.7c-4.1-4.1-13-9.3-13-9.3l-2.5-1.7l2.3,7L48.6,37.1z"/>
	</g>
	<use xlink:href="#SVGID_1_"  style="overflow:visible;fill:none;stroke:#FFFFFF;stroke-width:3.208;stroke-miterlimit:10;"/>
</g>
<path class="st15" d="M95.2,79.7"/>
<path class="st15" d="M56.5,14.9"/>
<path class="st0" d="M63.7,71.8L36,85.1c0,0,0.2,0.2,0.6,0.5c0.4,0.3,0.7,0.5,0.7,0.5l26.3-12.9L63.7,71.8z"/>
</svg>
