<?xml version="1.0" encoding="utf-8"?>
<!-- Generator: Adobe Illustrator 22.0.1, SVG Export Plug-In . SVG Version: 6.00 Build 0)  -->
<svg version="1.1" id="Layer_1" xmlns="http://www.w3.org/2000/svg" xmlns:xlink="http://www.w3.org/1999/xlink" x="0px" y="0px"
	 viewBox="0 0 64 64" style="enable-background:new 0 0 64 64;" xml:space="preserve">
<style type="text/css">
	.st0{fill:#F7941D;}
	.st1{fill:#F0E7D6;}
</style>
<g>
	<g>
		<path class="st0" d="M20.3,22.6c-0.2,0.1-0.5,0-0.6-0.2c-0.6-1.1-2.3-4.9,0.2-8.7c1-1.6,1.9-2.4,2.5-3c1-0.9,1.2-1.1,0.6-3.3
			c0-0.2,0-0.3,0.2-0.4L23.3,7c0.2-0.1,0.4-0.1,0.6,0c0.6,0.5,1.7,1.8,1.3,4.5c-0.2,1.4-1.2,2.6-2.2,4c-1.5,1.9-3,4-2.4,6.6
			C20.6,22.3,20.5,22.5,20.3,22.6L20.3,22.6z"/>
	</g>
	<g>
		<path class="st0" d="M39.7,27.5c-0.1-0.2-0.1-0.4,0-0.6c0.8-0.9,3.3-4.1,2.2-8.7c-0.5-2.2-1.3-3.5-2-4.7c-1.1-1.8-1.7-3.7-1.4-5.4
			c0.3-1.7,0.9,0.2,3.5,2.1c1,0.7,5.7,4.4,5.3,9.2c-0.3,3-2.6,5.7-6.8,8.1C40.2,27.7,39.9,27.7,39.7,27.5L39.7,27.5z"/>
	</g>
	<g>
		<path class="st0" d="M30.9,28.8L30.9,28.8c-4.3,0-7.9-2.7-8.3-6.3c-0.3-2.5,1-5,3.4-6.5c0.2-0.1,0.5-0.1,0.7,0.1l0,0
			c0.2,0.1,0.2,0.3,0.1,0.5c-0.3,0.4-0.4,0.9-0.4,1.4c0.2,1.2,1.3,2,2.7,2c0.1,0,0.2,0,0.3,0c1.4-0.1,2.5-1.2,2.4-2.4c0,0,0,0,0-0.1
			c-0.2-0.9-0.8-1.9-1.5-2.9c-1-1.5-2.1-3.3-1.9-5c0.4-3.5,4.2-6.8,5.3-7.8c0.2-0.2,0.5-0.2,0.7,0l0,0c0.2,0.1,0.2,0.3,0.2,0.5
			c-0.3,0.7-1,2.8-0.3,6.1c0.6,3.2,1.6,4.5,2.6,5.8c0.3,0.4,0.6,0.8,0.9,1.2l0.2,0.2c1.1,1.7,1.9,3,1.6,6c-0.3,3.2-3,6.7-7.6,7.1
			C31.5,28.8,31.2,28.8,30.9,28.8z"/>
	</g>
</g>
<g>
	<path class="st1" d="M28.1,60.4c0.2,0.4,0.3,0.8,0.7,1.1c0.7,0.4,2.6,0.7,3.5,0.7l0,0c1.2,0,4-0.5,4.1-1.1c0.1-0.3,0.1-0.6-0.1-0.9
		l-9.2-18.4c-0.1-0.2-0.4-0.3-0.7-0.2c-1.8,1-4,1.3-6.1,0.9c-0.1,0-0.1,0-0.1,0c-0.2,0-0.3,0.1-0.4,0.2c0,0.1-0.1,0.2,0,0.3
		C23,48.6,25.8,54.4,28.1,60.4z"/>
	<path class="st1" d="M48.7,35.7c3.3-2.3,4.5-4.6,5.1-5.6c1.2-2.1,1.7-4.4,1.3-6.3c-0.5-2.8-2.7-5.3-5.9-7c1.4,2,1.8,4.7,0.8,7.1
		c-1,2.5-3.1,4.7-6.1,6.1c-1.8,0.9-4,1.6-6.7,2c-0.3,0.1-0.6,0.3-0.7,0.5c-0.1,0.3-0.1,0.5,0.1,0.7c0.5,0.7,2.2,4.3,3,3.9
		C44.4,35.1,46.4,37.3,48.7,35.7z"/>
	<path class="st1" d="M33.6,48.1c1.1,2.3,2.4,5.2,3.9,7.9c0.2,0.3,0.3,0.5,0.5,0.5c0,0,0,0,0.1,0c0.4,0,0.9-1.1,1.1-1.6
		c0.1-0.1,0.1-0.2,0.1-0.3l1.4-3c0.3-0.6,4-8.1,4.1-8.7c0.1-0.6-5.8,1.5-8.3-5c-0.6-1.6-2.2-3.2-4.1-4.5c-2.1-1.4-4.7-2-7.2-2.6
		c-0.7-0.2-1.5-0.3-2.2-0.5c-3-0.8-6.8-2.4-8-5.5c-1.1-2.8,0.1-5.7,1.6-8.5c-2.2,0.7-4.9,1.9-6.9,4.3C7.8,23,7.2,26,8.1,28.4
		c1.5,4,6.6,5.9,10.2,7l0.9,0.3c4.1,1.2,8.4,2.4,10.9,5.6c0.8,1,1.4,2.2,1.9,3.4c0.2,0.3,0.3,0.7,0.5,1
		C32.8,46.4,33.2,47.2,33.6,48.1z"/>
</g>
</svg>
