<?xml version="1.0" encoding="utf-8"?>
<!-- Generator: Adobe Illustrator 22.0.1, SVG Export Plug-In . SVG Version: 6.00 Build 0)  -->
<svg version="1.1" xmlns="http://www.w3.org/2000/svg" xmlns:xlink="http://www.w3.org/1999/xlink" x="0px" y="0px"
	 viewBox="0 0 64 64" style="enable-background:new 0 0 64 64;" xml:space="preserve">
<style type="text/css">
	.st0{fill:#6B352D;}
	.st1{opacity:0.7;}
	.st2{opacity:0.8;clip-path:url(#SVGID_2_);}
	.st3{fill:url(#SVGID_3_);}
	.st4{fill:url(#SVGID_4_);}
	.st5{fill:url(#SVGID_5_);}
	.st6{fill:url(#SVGID_6_);}
	.st7{fill:#8A5C57;}
	.st8{fill:url(#SVGID_7_);}
	.st9{fill:url(#SVGID_8_);}
	.st10{opacity:0.5;fill:#F0E7D6;}
	.st11{fill:#F0E7D6;}
	.st12{fill:#F7941D;}
</style>
<g id="Layer_3">
	<circle class="st0" cx="32.1" cy="32" r="31.4"/>
</g>
<g id="Layer_2">
	<g class="st1">
		<defs>
			<circle id="SVGID_1_" class="st1" cx="32.1" cy="32" r="31.4"/>
		</defs>
		<clipPath id="SVGID_2_">
			<use xlink:href="#SVGID_1_"  style="overflow:visible;"/>
		</clipPath>
		<g class="st2">
			<g>
				<linearGradient id="SVGID_3_" gradientUnits="userSpaceOnUse" x1="54.155" y1="29.0538" x2="54.3965" y2="19.6352">
					<stop  offset="0" style="stop-color:#8A5C57;stop-opacity:0"/>
					<stop  offset="1" style="stop-color:#8A5C57"/>
				</linearGradient>
				<path class="st3" d="M77.7,32.5c0,0-13.4-7.4-24.8-11.2s-22.1-2.4-22.1-2.4s7.4,7.4,15.6,7.9c8.2,0.5,19.3,0.7,20.8,2.4
					S77.7,32.5,77.7,32.5z"/>
				<linearGradient id="SVGID_4_" gradientUnits="userSpaceOnUse" x1="30.1312" y1="10.5397" x2="60.0775" y2="11.9887">
					<stop  offset="0" style="stop-color:#8A5C57;stop-opacity:0"/>
					<stop  offset="1" style="stop-color:#8A5C57"/>
				</linearGradient>
				<path class="st4" d="M28.1,14.3c16.6-2.4,27.1,5.3,32.2,2.1c2.9-1.8,4-11.6,2.9-14.7s-4.7-2.9-6-1.6S48.2,7,44,8.2
					s-10.7,2.9-13.8,3.3L28.1,14.3c-9.6,0.8-22.1,2.5-33,5.2c-11.1,2.8-20.3,1.6-28.3-2.2"/>
				<linearGradient id="SVGID_5_" gradientUnits="userSpaceOnUse" x1="42.5722" y1="32.8225" x2="47.4022" y2="46.8296">
					<stop  offset="0" style="stop-color:#8A5C57;stop-opacity:0"/>
					<stop  offset="1" style="stop-color:#8A5C57"/>
				</linearGradient>
				<path class="st5" d="M79.7,56c0,0-1.3-1.1-17.4-8s-36.6-8.3-46.9-8.3c0,0,18.4-9.8,25.4-8.1c7,1.7,16.2,6.8,25.1,4.1
					C74.9,33.1,79.7,56,79.7,56z"/>
				<linearGradient id="SVGID_6_" gradientUnits="userSpaceOnUse" x1="-1.7088" y1="52.557" x2="3.6043" y2="59.3191">
					<stop  offset="0" style="stop-color:#8A5C57"/>
					<stop  offset="1" style="stop-color:#8A5C57;stop-opacity:0"/>
				</linearGradient>
				<path class="st6" d="M-29.9,54.6c14.5-7.4,34.6-11.4,50.2-12c0,0-5.1,9.3-19.3,11.7C-13.3,56.8-29.9,54.6-29.9,54.6z"/>
				<g>
					<path class="st7" d="M10.9,28.1c-0.8,0.1-1.6,0.1-2.4,0.2c-0.8,0.1-1.6,0.2-2.4,0.3c-1.6,0.2-3.2,0.5-4.7,0.9
						c-3.1,0.8-6.1,1.8-9.2,2.8c-3,1-6.1,2.1-9.3,2.8l-1.2,0.3l-1.2,0.2c-0.8,0.2-1.6,0.2-2.4,0.3c-0.8,0.1-1.6,0-2.4,0
						c-0.8,0-1.6-0.2-2.4-0.3c0.8,0,1.6,0.1,2.4,0.1c0.8-0.1,1.6-0.1,2.4-0.2c0.8-0.1,1.6-0.2,2.4-0.4l1.2-0.3l1.2-0.3
						c3.1-0.9,6.1-2,9.1-3.1c3.1-1,6.2-2,9.4-2.6c1.6-0.3,3.2-0.5,4.8-0.6c0.8,0,1.6-0.1,2.4-0.1C9.2,28,10.1,28.1,10.9,28.1z"/>
				</g>
				<linearGradient id="SVGID_7_" gradientUnits="userSpaceOnUse" x1="-6.8893" y1="-0.8515" x2="47.7001" y2="-0.8515">
					<stop  offset="0" style="stop-color:#8A5C57;stop-opacity:0"/>
					<stop  offset="1" style="stop-color:#8A5C57"/>
				</linearGradient>
				<path class="st8" d="M-6.9,2.4c5.8,1.4,26.3,2.2,34.6,1.1c1.7-0.2,3.3-0.6,4.8-1c0,0,12.6-4.4,15-6.8c2.4-2.4-29.5-1-29.5-1
					L-6.9,2.4z"/>
				<g>
					<path class="st7" d="M-6.9,2.4C-5.3,2.7-3.6,2.8-2,2.9C-0.3,3,1.3,3.1,3,3.2c3.3,0.1,6.6,0.2,9.9,0.3c3.3,0.1,6.6,0.1,9.9,0
						c3.3-0.1,6.6-0.2,9.8-1c-1.5,0.6-3.2,1-4.8,1.3c-1.6,0.2-3.3,0.4-5,0.5c-3.3,0.2-6.6,0.3-9.9,0.2C9.5,4.5,6.2,4.3,2.9,4
						C-0.4,3.7-3.7,3.4-6.9,2.4z"/>
				</g>
				<linearGradient id="SVGID_8_" gradientUnits="userSpaceOnUse" x1="24.8079" y1="55.4669" x2="61.0936" y2="55.4669">
					<stop  offset="0" style="stop-color:#8A5C57;stop-opacity:0"/>
					<stop  offset="1" style="stop-color:#8A5C57"/>
				</linearGradient>
				<path class="st9" d="M61.1,48.3c-4.8-0.7-8.7,2.2-15,4.8c-6.3,2.7-5.3-3.9-12.1-3.9c-6.8,0-9.2,5.1-9.2,5.1
					c4.9,0.5,25.5,5.8,34.1,8.3l0.5-14.2"/>
				<g>
					<path class="st7" d="M12.5,51.5c1-0.3,2-0.3,2.9-0.2c1,0.1,1.9,0.3,2.9,0.7c-1,0.4-2,0.4-3,0.4C14.4,52.3,13.4,52.1,12.5,51.5z
						"/>
				</g>
				<g>
					<path class="st7" d="M-5.6,58.4c5-1,10.1-1.4,15.2-1.5c5.1-0.1,10.2,0.3,15.3,0.9c5.1,0.7,10.1,1.7,15,3
						c2.4,0.8,4.9,1.5,7.3,2.4c2.4,0.8,4.8,1.9,7.1,2.9c-2.4-0.8-4.8-1.7-7.3-2.4c-2.4-0.8-4.9-1.4-7.3-2.1c-4.9-1.2-9.9-2.1-15-2.8
						c-5-0.7-10.1-1-15.2-1.1c-2.5,0-5.1,0-7.6,0.1C-0.5,57.9-3.1,58.1-5.6,58.4z"/>
				</g>
			</g>
			<g>
				<g>
					<path class="st7" d="M30.8,18.9c4.1-0.7,8.3-0.6,12.4-0.2c4.1,0.4,8.2,1.5,12.2,2.9c3.9,1.5,7.7,3.1,11.4,5
						c3.7,1.8,7.4,3.8,10.9,6c-1.9-0.9-3.7-1.8-5.6-2.6c-1.9-0.9-3.7-1.7-5.6-2.6c-3.8-1.7-7.6-3.3-11.4-4.7
						c-3.8-1.5-7.8-2.5-11.9-3.1c-2-0.3-4.1-0.5-6.1-0.6C34.9,18.8,32.9,18.8,30.8,18.9z"/>
				</g>
				<g>
					<path class="st7" d="M28.1,14.3c3.5-0.6,7.1-0.8,10.6-0.6c3.6,0.2,7.1,0.9,10.6,1.7c1.7,0.4,3.5,0.8,5.2,1.1
						c1.7,0.3,3.5,0.4,5-0.2c0.4-0.2,0.7-0.3,1-0.6c0.3-0.3,0.5-0.6,0.7-1c0.4-0.7,0.7-1.5,1-2.4c0.5-1.7,0.8-3.4,0.9-5.1
						c0.1-1.7,0.2-3.5-0.2-5.1c-0.2-0.8-0.6-1.4-1.3-1.8c-0.6-0.4-1.4-0.6-2.2-0.5c-0.4,0-0.8,0.1-1.1,0.3c-0.4,0.2-0.6,0.4-1,0.7
						c-0.7,0.6-1.4,1.1-2.1,1.6c-1.4,1.1-2.9,2-4.5,3c-1.5,0.9-3.1,1.8-4.7,2.5c-1.7,0.7-3.4,1.1-5.1,1.6c-1.7,0.4-3.5,0.8-5.2,1.2
						c-1.7,0.4-3.5,0.7-5.3,0.9c3.5-0.6,6.9-1.6,10.3-2.6c1.7-0.5,3.4-0.9,5-1.7c1.6-0.8,3.1-1.7,4.6-2.6c1.5-1,2.9-2,4.4-3
						c0.7-0.5,1.4-1.1,2.1-1.6c0.3-0.2,0.7-0.7,1.2-0.9c0.5-0.2,0.9-0.4,1.4-0.4c1-0.1,2,0.1,2.9,0.6c0.9,0.5,1.5,1.5,1.7,2.4
						c0.5,1.9,0.4,3.7,0.3,5.5c-0.2,1.8-0.5,3.6-1,5.3c-0.3,0.9-0.6,1.7-1.1,2.6c-0.2,0.4-0.5,0.8-0.9,1.2c-0.4,0.4-0.8,0.6-1.3,0.8
						c-1.9,0.7-3.8,0.5-5.5,0.2c-1.8-0.3-3.5-0.8-5.2-1.2C42.3,14.4,35.2,13.4,28.1,14.3z"/>
				</g>
				<g>
					<path class="st7" d="M-33.2,17.3c4.8,1.9,10,2.9,15.1,3c2.6,0,5.1-0.2,7.6-0.6c2.5-0.4,5-1,7.5-1.6c5.1-1.2,10.2-2,15.4-2.7
						c5.2-0.6,10.4-1,15.6-1.1c-5.1,0.8-10.3,1.6-15.4,2.5c-5.1,0.9-10.2,1.9-15.2,3c-2.5,0.6-5.1,1.2-7.7,1.6
						c-2.6,0.3-5.3,0.5-7.9,0.3C-23.4,21.4-28.6,19.8-33.2,17.3z"/>
				</g>
				<g>
					<path class="st7" d="M10.9,28.1c-0.8,0.1-1.6,0.1-2.4,0.2c-0.8,0.1-1.6,0.2-2.4,0.3c-1.6,0.2-3.2,0.5-4.7,0.9
						c-3.1,0.8-6.1,1.8-9.2,2.8c-3,1-6.1,2.1-9.3,2.8l-1.2,0.3l-1.2,0.2c-0.8,0.2-1.6,0.2-2.4,0.3c-0.8,0.1-1.6,0-2.4,0
						c-0.8,0-1.6-0.2-2.4-0.3c0.8,0,1.6,0.1,2.4,0.1c0.8-0.1,1.6-0.1,2.4-0.2c0.8-0.1,1.6-0.2,2.4-0.4l1.2-0.3l1.2-0.3
						c3.1-0.9,6.1-2,9.1-3.1c3.1-1,6.2-2,9.4-2.6c1.6-0.3,3.2-0.5,4.8-0.6c0.8,0,1.6-0.1,2.4-0.1C9.2,28,10.1,28.1,10.9,28.1z"/>
				</g>
				<g>
					<path class="st7" d="M15.4,39.7c5.6-0.2,11.2,0,16.8,0.6c5.6,0.5,11.1,1.5,16.6,2.8c5.5,1.3,10.8,3.2,15.9,5.5
						c5.1,2.3,10.2,4.5,15,7.4c-2.5-1.3-5.1-2.3-7.6-3.4c-2.6-1.1-5.1-2.2-7.7-3.2c-2.6-1.1-5.1-2.1-7.8-3c-1.3-0.4-2.7-0.8-4-1.2
						c-1.3-0.3-2.7-0.7-4-1c-5.4-1.4-10.9-2.3-16.4-3c-2.8-0.4-5.5-0.7-8.3-0.9C21,40,18.2,39.9,15.4,39.7z"/>
				</g>
				<g>
					<path class="st7" d="M20.3,42.6L17,42.9c-1.1,0.1-2.2,0.2-3.2,0.4c-2.1,0.2-4.3,0.5-6.4,0.9c-4.3,0.7-8.5,1.4-12.7,2.4
						c-4.2,0.9-8.4,2.1-12.5,3.4l-3.1,1l-3,1.1l-3,1.2l-3,1.3c0.9-0.5,1.9-1,2.9-1.5l2.9-1.4l3-1.3l3-1.2c4.1-1.5,8.3-2.6,12.5-3.6
						c4.2-0.9,8.5-1.7,12.8-2.2c2.2-0.2,4.3-0.4,6.5-0.6C15.9,42.7,18.1,42.6,20.3,42.6z"/>
				</g>
				<g>
					<path class="st7" d="M-6.9,2.4C-5.3,2.7-3.6,2.8-2,2.9C-0.3,3,1.3,3.1,3,3.2c3.3,0.1,6.6,0.2,9.9,0.3c3.3,0.1,6.6,0.1,9.9,0
						c3.3-0.1,6.6-0.2,9.8-1c-1.5,0.6-3.2,1-4.8,1.3c-1.6,0.2-3.3,0.4-5,0.5c-3.3,0.2-6.6,0.3-9.9,0.2C9.5,4.5,6.2,4.3,2.9,4
						C-0.4,3.7-3.7,3.4-6.9,2.4z"/>
				</g>
				<g>
					<path class="st7" d="M12.5,51.5c1-0.3,2-0.3,2.9-0.2c1,0.1,1.9,0.3,2.9,0.7c-1,0.4-2,0.4-3,0.4C14.4,52.3,13.4,52.1,12.5,51.5z
						"/>
				</g>
				<g>
					<path class="st7" d="M24.8,54.4c2.9,0.2,5.8,0.8,8.7,1.3c2.9,0.6,5.7,1.2,8.6,1.9c2.8,0.7,5.7,1.5,8.5,2.3l4.2,1.3
						c1.4,0.5,2.8,0.9,4.1,1.5l-4.3-0.9l-4.3-1c-2.8-0.7-5.7-1.4-8.5-2.1l-8.5-2.2l-4.2-1.1C27.7,55.1,26.2,54.7,24.8,54.4z"/>
				</g>
				<g>
					<path class="st7" d="M-5.6,58.4c5-1,10.1-1.4,15.2-1.5c5.1-0.1,10.2,0.3,15.3,0.9c5.1,0.7,10.1,1.7,15,3
						c2.4,0.8,4.9,1.5,7.3,2.4c2.4,0.8,4.8,1.9,7.1,2.9c-2.4-0.8-4.8-1.7-7.3-2.4c-2.4-0.8-4.9-1.4-7.3-2.1c-4.9-1.2-9.9-2.1-15-2.8
						c-5-0.7-10.1-1-15.2-1.1c-2.5,0-5.1,0-7.6,0.1C-0.5,57.9-3.1,58.1-5.6,58.4z"/>
				</g>
			</g>
		</g>
	</g>
</g>
<g id="Layer_1">
	<path class="st10" d="M7.3,34.9l1.3,0c0.2,0,0.2,0.2,0.1,0.3l-1,0.8c-0.1,0-0.1,0.1-0.1,0.2l0.4,1.2c0,0.1-0.1,0.3-0.2,0.2l-1-0.7
		c-0.1,0-0.1,0-0.2,0l-1,0.7c-0.1,0.1-0.3,0-0.2-0.2l0.4-1.2c0-0.1,0-0.1-0.1-0.2l-1-0.8c-0.1-0.1-0.1-0.3,0.1-0.3l1.3,0
		c0.1,0,0.1,0,0.2-0.1l0.4-1.2c0-0.1,0.3-0.1,0.3,0l0.4,1.2C7.1,34.9,7.2,34.9,7.3,34.9z"/>
	<path class="st10" d="M58.9,34.9l1.3,0c0.2,0,0.2,0.2,0.1,0.3l-1,0.8c-0.1,0-0.1,0.1-0.1,0.2l0.4,1.2c0,0.1-0.1,0.3-0.2,0.2l-1-0.7
		c-0.1,0-0.1,0-0.2,0l-1,0.7c-0.1,0.1-0.3,0-0.2-0.2l0.4-1.2c0-0.1,0-0.1-0.1-0.2l-1-0.8c-0.1-0.1-0.1-0.3,0.1-0.3l1.3,0
		c0.1,0,0.1,0,0.2-0.1l0.4-1.2c0-0.1,0.3-0.1,0.3,0l0.4,1.2C58.7,34.9,58.8,34.9,58.9,34.9z"/>
	<g>
		<path class="st11" d="M3.7,29.3l0.5-2.9c0-0.2,0.2-0.3,0.4-0.3l0.6,0.1c0.2,0,0.3,0.2,0.3,0.4l-0.3,1.7c0,0.2,0.1,0.3,0.3,0.4
			l0.2,0c0.2,0,0.3-0.1,0.4-0.3L6.2,27c0-0.2,0.2-0.3,0.4-0.3L7,26.8c0.2,0,0.3,0.2,0.3,0.4l-0.2,1.3c0,0.2,0.1,0.3,0.3,0.4l1,0.2
			c0.2,0,0.3,0.2,0.3,0.4L8.5,30c0,0.2-0.2,0.3-0.4,0.3L4,29.6C3.8,29.6,3.7,29.4,3.7,29.3z"/>
		<path class="st11" d="M5.6,22.2l4,1.4c0.2,0.1,0.2,0.2,0.2,0.4l-0.2,0.6c-0.1,0.2-0.2,0.2-0.4,0.2l-4-1.4C5,23.4,5,23.2,5,23
			l0.2-0.6C5.3,22.3,5.5,22.2,5.6,22.2z"/>
		<path class="st11" d="M7.6,17.2c0.6-1.1,1.6-1.1,2.5-0.6c0.5,0.3,0.8,0.8,0.9,1.3c0,0.2,0.2,0.3,0.3,0.3l0.9-0.1
			c0.3,0,0.4,0.3,0.3,0.5l-0.4,0.6c-0.1,0.1-0.1,0.1-0.2,0.1l-1.3,0.1c-0.1,0-0.2,0.1-0.2,0.1l-0.1,0.1c-0.1,0.1,0,0.3,0.1,0.4
			l0.6,0.4c0.1,0.1,0.2,0.3,0.1,0.4l-0.3,0.5c-0.1,0.1-0.3,0.2-0.4,0.1l-3.6-2.2c-0.1-0.1-0.2-0.3-0.1-0.4L7.6,17.2z M8.3,19
			l0.6,0.3c0.1,0.1,0.3,0,0.4-0.1l0.4-0.6c0.3-0.4,0.1-0.7-0.2-0.9c-0.3-0.2-0.7-0.2-0.9,0.2l-0.4,0.6C8.1,18.7,8.1,18.9,8.3,19z"/>
		<path class="st11" d="M10.6,13l2.2-2.2c0.1-0.1,0.3-0.1,0.4,0l0.4,0.4c0.1,0.1,0.1,0.3,0,0.4L12.3,13c-0.1,0.1-0.1,0.3,0,0.4
			l0.1,0.1c0.1,0.1,0.3,0.1,0.4,0l1-1c0.1-0.1,0.3-0.1,0.4,0l0.4,0.4c0.1,0.1,0.1,0.3,0,0.4l-1,1c-0.1,0.1-0.1,0.3,0,0.4l0,0
			c0.1,0.1,0.3,0.1,0.4,0l1.3-1.3c0.1-0.1,0.3-0.1,0.4,0l0.4,0.4c0.1,0.1,0.1,0.3,0,0.4L14,16.4c-0.1,0.1-0.3,0.1-0.4,0l-3-3
			C10.5,13.3,10.5,13.1,10.6,13z"/>
		<path class="st11" d="M20.9,5.7l3.3,3.2c0.2,0.2,0.1,0.4-0.1,0.5l-0.6,0.3c-0.1,0.1-0.3,0-0.3-0.1l-0.2-0.2
			c-0.1-0.1-0.2-0.1-0.3-0.1l-1.4,0.6C21.1,9.9,21,10,21,10.2l0,0.3c0,0.1-0.1,0.2-0.2,0.3l-0.6,0.3c-0.2,0.1-0.4-0.1-0.4-0.3
			l-0.1-4.6c0-0.1,0.1-0.2,0.2-0.3l0.7-0.3C20.7,5.5,20.8,5.6,20.9,5.7z M20.9,8.1l0,0.2c0,0.2,0.2,0.4,0.4,0.3l0.2-0.1
			c0.2-0.1,0.2-0.3,0.1-0.5l-0.2-0.2C21.2,7.6,20.9,7.8,20.9,8.1z"/>
		<path class="st11" d="M26.1,8.3l-0.6-4.2c0-0.2,0.1-0.3,0.3-0.4l0.6-0.1c0.1,0,0.2,0,0.3,0.1l1.8,1.7c0.2,0.2,0.6,0,0.5-0.3
			l-0.2-1.5c0-0.2,0.1-0.3,0.3-0.4l0.6-0.1c0.2,0,0.3,0.1,0.4,0.3l0.6,4.2c0,0.2-0.1,0.3-0.3,0.4l-0.6,0.1c-0.1,0-0.2,0-0.3-0.1
			l-1.8-1.7c-0.2-0.2-0.6,0-0.5,0.3l0.2,1.5c0,0.2-0.1,0.3-0.3,0.4l-0.6,0.1C26.2,8.6,26.1,8.4,26.1,8.3z"/>
		<path class="st11" d="M33.2,3.3c0-0.2,0.2-0.3,0.3-0.3l1.9,0.2c1.5,0.2,2.1,1.4,2,2.7c-0.2,1.3-1.1,2.3-2.6,2.1l-1.9-0.2
			c-0.2,0-0.3-0.2-0.3-0.3L33.2,3.3z M34.2,4.6L34,6.4c0,0.2,0.1,0.3,0.3,0.3l0.6,0.1c0.7,0.1,1.2-0.3,1.3-1.1
			c0.1-0.7-0.2-1.3-1-1.4l-0.6-0.1C34.4,4.3,34.3,4.4,34.2,4.6z"/>
		<path class="st11" d="M44.5,5.7l2.6,1.5c0.2,0.1,0.2,0.3,0.1,0.4l-0.3,0.5c-0.1,0.2-0.3,0.2-0.4,0.1L45,7.3
			c-0.2-0.1-0.3,0-0.4,0.1l-0.1,0.2c-0.1,0.2,0,0.3,0.1,0.4l1.2,0.7c0.2,0.1,0.2,0.3,0.1,0.4l-0.2,0.4c-0.1,0.2-0.3,0.2-0.4,0.1
			L44,9.1c-0.2-0.1-0.3,0-0.4,0.1l-0.5,0.9c-0.1,0.2-0.3,0.2-0.4,0.1l-0.5-0.3C42,9.8,41.9,9.6,42,9.5l2.1-3.7
			C44.1,5.6,44.3,5.6,44.5,5.7z"/>
		<path class="st11" d="M50.1,9.1l2.3,2.1c0.1,0.1,0.1,0.3,0,0.4L52,12.1c-0.1,0.1-0.3,0.1-0.4,0l-1.4-1.3c-0.1-0.1-0.3-0.1-0.4,0
			l-0.1,0.1c-0.1,0.1-0.1,0.3,0,0.4l1,1c0.1,0.1,0.1,0.3,0,0.4l-0.3,0.4c-0.1,0.1-0.3,0.1-0.4,0l-1-1c-0.1-0.1-0.3-0.1-0.4,0l0,0
			c-0.1,0.1-0.1,0.3,0,0.4l1.4,1.3c0.1,0.1,0.1,0.3,0,0.4l-0.4,0.4c-0.1,0.1-0.3,0.1-0.4,0l-2.3-2.1c-0.1-0.1-0.1-0.3,0-0.4l2.9-3.1
			C49.8,9,50,9,50.1,9.1z"/>
		<path class="st11" d="M56.2,16.2L53.6,20c-0.1,0.2-0.4,0.2-0.5,0l-0.4-0.6c-0.1-0.1-0.1-0.2,0-0.4l0.2-0.3c0.1-0.1,0.1-0.2,0-0.4
			l-0.8-1.2c-0.1-0.1-0.2-0.2-0.3-0.1l-0.3,0.1c-0.1,0-0.3,0-0.3-0.1l-0.4-0.6c-0.1-0.2,0-0.4,0.2-0.5l4.5-0.9c0.1,0,0.3,0,0.3,0.1
			l0.4,0.7C56.3,16,56.3,16.1,56.2,16.2z M53.9,16.6l-0.2,0.1c-0.2,0-0.3,0.3-0.2,0.5l0.1,0.1c0.1,0.2,0.4,0.2,0.5,0l0.1-0.2
			C54.4,16.8,54.1,16.5,53.9,16.6z"/>
		<path class="st11" d="M55.7,21.9c0,0.1,0,0.2,0,0.2c-0.1,0.1-0.2,0.4,0,0.9c0.2,0.4,0.3,0.5,0.5,0.5c0.2-0.1,0.2-0.3,0.2-1
			c0-0.8,0-1.9,1-2.2c0.9-0.3,1.7,0.3,2,1.3c0.3,1,0.1,1.9-0.6,2.3c-0.1,0.1-0.3,0-0.4-0.1l-0.3-0.7c0-0.1,0-0.2,0.1-0.3
			c0.2-0.1,0.2-0.4,0.1-0.8c-0.1-0.4-0.4-0.5-0.5-0.5c-0.2,0.1-0.2,0.3-0.2,0.9c0,0.7,0,1.9-1,2.3c-0.9,0.3-1.6-0.3-2-1.4
			c-0.3-1-0.2-1.9,0.5-2.3c0.1-0.1,0.3,0,0.4,0.1L55.7,21.9z"/>
		<path class="st11" d="M60.7,26.6l0.3,3.5c0,0.2-0.1,0.4-0.3,0.4l-0.5,0c-0.2,0-0.4-0.1-0.4-0.3l-0.1-0.8c0-0.2-0.2-0.3-0.4-0.3
			l-2.9,0.3c-0.2,0-0.4-0.1-0.4-0.3l0-0.5c0-0.2,0.1-0.4,0.3-0.4l2.9-0.3c0.2,0,0.3-0.2,0.3-0.4l-0.1-0.8c0-0.2,0.1-0.4,0.3-0.4
			l0.5,0C60.5,26.2,60.7,26.4,60.7,26.6z"/>
	</g>
	<g>
		<path class="st12" d="M6.4,45.1l-0.9-2c0-0.1,0-0.1,0.1-0.2l3.8-1.7c0.1,0,0.2,0,0.2,0.1l0.2,0.4c0.1,0.1,0,0.2-0.1,0.2l-3.3,1.5
			c-0.1,0-0.1,0.1,0,0.2L7,44.9C7,45,7,45,6.9,45l-0.3,0.1C6.5,45.2,6.5,45.2,6.4,45.1z"/>
		<path class="st12" d="M8.2,48l-0.3-0.4c-0.1-0.1,0-0.1,0.1-0.2l3.5-2.3c0.1-0.1,0.1,0,0.2,0.1l0.2,0.4c0.1,0.1,0,0.1-0.1,0.2
			L8.4,48C8.3,48,8.2,48.1,8.2,48z"/>
		<path class="st12" d="M14.4,49.5l-0.9-1c-0.1-0.1-0.1-0.1-0.2-0.1l-0.9,0.8c-0.1,0.1-0.1,0.1,0,0.2l0.8,0.9c0.1,0.1,0.1,0.2,0,0.2
			L13,50.7c-0.1,0.1-0.2,0-0.3-0.1L12,49.8c-0.1-0.1-0.1-0.1-0.2,0l-1.2,1.1c-0.1,0.1-0.1,0-0.1,0l-0.3-0.4c-0.1-0.1-0.1-0.1,0-0.2
			l3.1-2.8c0.1-0.1,0.2-0.1,0.2,0l1.4,1.6c0.1,0.1,0.1,0.1,0,0.2l-0.3,0.2C14.6,49.6,14.5,49.6,14.4,49.5z"/>
		<path class="st12" d="M15.6,55.7l-1.9-1.4c-0.1,0-0.1-0.1,0-0.2l2.5-3.3c0.1-0.1,0.1-0.2,0.2-0.1l1.8,1.4c0.1,0.1,0.1,0.1,0.1,0.2
			l-0.2,0.3c-0.1,0.1-0.1,0-0.3-0.1l-1.1-0.8c-0.1-0.1-0.2-0.1-0.2,0l-0.6,0.8c-0.1,0.1-0.1,0.1,0,0.2l1,0.7
			c0.1,0.1,0.1,0.1,0.1,0.2l-0.2,0.2c-0.1,0.1-0.2,0-0.3-0.1L15.6,53c-0.1-0.1-0.2-0.1-0.2,0l-0.7,1c-0.1,0.1,0,0.2,0.1,0.2l1.2,0.9
			c0.1,0.1,0.2,0.2,0.1,0.2l-0.2,0.3C15.7,55.7,15.7,55.7,15.6,55.7z"/>
		<path class="st12" d="M22.6,59.3c-0.6-0.2-1.5-0.7-1.2-1.8l0.6-1.7c0.4-1,1-1.3,2.1-0.9c0.9,0.3,1.5,0.9,1.1,2l-0.5,1.6
			C24.2,59.8,23.1,59.5,22.6,59.3z M24.5,56.7c0.2-0.6,0-1-0.5-1.2c-0.7-0.2-1,0-1.2,0.6l-0.5,1.5c-0.2,0.6,0.2,1,0.6,1.1
			c0.5,0.2,0.9,0.2,1.2-0.6L24.5,56.7z"/>
		<path class="st12" d="M28.7,60.7c-0.7-0.1-1.5-0.5-1.4-1.6l0.4-3c0-0.1,0-0.2,0.1-0.1l0.5,0.1c0.1,0,0.1,0.1,0.1,0.2L28.1,59
			c-0.1,0.6,0.2,1,0.7,1.1c0.7,0.1,0.9-0.3,1-0.9l0.3-2.8c0-0.1,0-0.1,0.1-0.1l0.5,0.1c0.1,0,0.1,0.1,0.1,0.2l-0.4,2.9
			C30.3,60.7,29.4,60.8,28.7,60.7z"/>
		<path class="st12" d="M35.7,56.7l-1,0.1c-0.1,0-0.1,0-0.1,0.1l0.3,3.6c0,0.2,0,0.2-0.1,0.2l-0.4,0c-0.1,0-0.2,0-0.2-0.2L33.8,57
			c0-0.1,0-0.1-0.2-0.1l-1,0.1c-0.1,0-0.1,0-0.1-0.1l0-0.4c0-0.1,0-0.1,0.2-0.1l2.9-0.2c0.1,0,0.2,0,0.2,0.1l0,0.4
			C35.8,56.7,35.8,56.7,35.7,56.7z"/>
		<path class="st12" d="M40.2,59.7c-0.2,0-1.4,0.4-1.4,0.4c-0.1,0-0.2,0-0.2-0.2L37.5,56c0-0.1,0-0.2,0.1-0.2c0,0,1.1-0.3,1.2-0.3
			c0.9-0.3,1.8-0.2,2.1,0.9l0.5,1.6C41.7,59.1,40.8,59.5,40.2,59.7z M40.2,56.6C40,56,39.5,55.8,38.9,56c-0.2,0.1-0.4,0.1-0.5,0.1
			c-0.1,0-0.1,0.1-0.1,0.2l0.9,2.9c0,0.1,0.1,0.1,0.2,0.1c0,0,0.4-0.1,0.5-0.1c0.5-0.1,0.9-0.4,0.7-1.1L40.2,56.6z"/>
		<path class="st12" d="M46,57.4c-0.5,0.3-1.5,0.7-2.1-0.3L43,55.5c-0.5-1-0.3-1.6,0.7-2.2c0.8-0.4,1.6-0.5,2.2,0.5l0.8,1.4
			C47.4,56.6,46.5,57.2,46,57.4z M45.3,54.3c-0.3-0.6-0.7-0.7-1.3-0.4c-0.6,0.3-0.7,0.8-0.4,1.3l0.8,1.4c0.3,0.6,0.8,0.5,1.2,0.3
			c0.4-0.2,0.7-0.6,0.3-1.3L45.3,54.3z"/>
		<path class="st12" d="M51.2,53.8c-0.5,0.4-1.4,1-2.1,0.1l-1.2-1.4c-0.7-0.8-0.6-1.5,0.2-2.3c0.7-0.6,1.5-0.8,2.3,0.1l1.1,1.2
			C52.4,52.7,51.6,53.5,51.2,53.8z M49.8,50.9c-0.4-0.5-0.9-0.5-1.3-0.1c-0.5,0.5-0.5,0.9-0.1,1.4l1.1,1.2c0.4,0.5,0.9,0.3,1.3,0
			c0.4-0.3,0.6-0.7,0.1-1.3L49.8,50.9z"/>
		<path class="st12" d="M54.1,47.3C54.1,47.4,54.1,47.4,54.1,47.3l2,0.4c0.2,0,0.2,0.1,0.1,0.2l-0.3,0.4c-0.1,0.1-0.1,0.1-0.2,0
			l-1.8-0.3c-0.1,0-0.1,0-0.1,0l-0.4,0.5c0,0.1,0,0.1,0,0.1l1.3,0.9c0.1,0.1,0.1,0.1,0.1,0.2l-0.3,0.4c-0.1,0.1-0.1,0.1-0.2,0
			l-3.3-2.5c-0.1-0.1-0.1-0.1,0-0.2l0.8-1.1c0.7-0.9,1.4-1.1,2.1-0.6C54.2,46.4,54.3,47,54.1,47.3z M52.1,46.9l-0.3,0.5
			c0,0.1,0,0.1,0,0.2l1,0.7c0.1,0.1,0.1,0,0.2,0l0.5-0.6c0.3-0.4,0.3-0.8-0.1-1.1C52.8,46.3,52.4,46.5,52.1,46.9z"/>
		<path class="st12" d="M58.3,44.3c-0.3,0.7-0.6,1-0.8,1.1c-0.1,0-0.6-0.3-0.5-0.3c0.1-0.1,0.4-0.3,0.7-0.9c0.2-0.5,0.3-1-0.2-1.2
			c-0.4-0.2-0.6-0.1-1.1,0.4c-0.5,0.5-1,0.9-1.8,0.6c-0.6-0.3-0.8-0.9-0.4-1.9c0.3-0.7,0.5-0.8,0.6-0.9c0.1-0.1,0.6,0.3,0.5,0.4
			c-0.1,0.1-0.3,0.4-0.5,0.7c-0.3,0.6-0.2,0.9,0.2,1c0.3,0.2,0.6,0,1.1-0.5c0.6-0.6,1.2-0.8,1.8-0.6C58.8,42.6,58.7,43.6,58.3,44.3z
			"/>
	</g>
	<g>
		<g>
			<path class="st12" d="M23.8,25c-0.2,0.1-0.3,0-0.4-0.1c-0.5-0.8-1.7-3.5,0.2-6.3c0.8-1.1,1.3-1.7,1.8-2.1
				c0.7-0.7,0.8-0.8,0.5-2.4c0-0.1,0-0.2,0.1-0.3l0.1-0.1c0.1-0.1,0.3-0.1,0.4,0c0.4,0.3,1.2,1.3,0.9,3.3c-0.1,1-0.8,1.9-1.6,2.9
				c-1.1,1.4-2.2,2.9-1.7,4.8C24.1,24.8,24,24.9,23.8,25L23.8,25z"/>
		</g>
		<g>
			<path class="st12" d="M38,28.5c-0.1-0.1-0.1-0.3,0-0.4c0.6-0.7,2.4-3,1.6-6.3c-0.4-1.6-1-2.5-1.5-3.4c-0.8-1.3-1.3-2.7-1.1-3.9
				c0.2-1.2,0.6,0.1,2.6,1.6c0.7,0.5,4.1,3.2,3.8,6.7c-0.2,2.2-1.9,4.2-5,5.9C38.3,28.7,38.1,28.7,38,28.5L38,28.5z"/>
		</g>
		<g>
			<path class="st12" d="M31.6,29.5L31.6,29.5c-3.1,0-5.7-2-6.1-4.6c-0.2-1.9,0.7-3.6,2.5-4.7c0.2-0.1,0.4-0.1,0.5,0l0,0
				c0.1,0.1,0.1,0.3,0,0.4c-0.2,0.3-0.3,0.7-0.3,1c0.1,0.8,0.9,1.5,2,1.5c0.1,0,0.1,0,0.2,0c1-0.1,1.8-0.9,1.7-1.7c0,0,0,0,0-0.1
				c-0.1-0.6-0.6-1.4-1.1-2.1c-0.7-1.1-1.5-2.4-1.4-3.7c0.3-2.5,3-5,3.8-5.7c0.1-0.1,0.3-0.1,0.5,0l0,0c0.1,0.1,0.2,0.2,0.1,0.4
				c-0.2,0.5-0.7,2-0.2,4.4c0.4,2.4,1.2,3.3,1.9,4.2c0.2,0.3,0.4,0.6,0.6,0.9l0.1,0.2c0.8,1.2,1.4,2.2,1.2,4.4
				c-0.2,2.3-2.2,4.9-5.5,5.2C32,29.5,31.8,29.5,31.6,29.5z"/>
		</g>
	</g>
	<g>
		<path class="st11" d="M29.5,52.4c0.1,0.3,0.2,0.6,0.5,0.8c0.5,0.3,1.9,0.5,2.5,0.5l0,0c0.9,0,2.9-0.4,3-0.8c0.1-0.2,0-0.4-0.1-0.7
			l-6.7-13.4c-0.1-0.2-0.3-0.2-0.5-0.1c-1.3,0.7-2.9,1-4.4,0.7c0,0-0.1,0-0.1,0c-0.1,0-0.3,0.1-0.3,0.2c0,0.1-0.1,0.1,0,0.2
			C25.8,43.8,27.9,48.1,29.5,52.4z"/>
		<path class="st11" d="M44.5,34.5c2.4-1.7,3.2-3.3,3.7-4.1c0.9-1.5,1.2-3.2,0.9-4.6c-0.4-2-2-3.9-4.3-5.1c1,1.4,1.3,3.4,0.6,5.2
			c-0.7,1.8-2.3,3.4-4.4,4.5c-1.3,0.7-2.9,1.1-4.8,1.5c-0.2,0-0.4,0.2-0.5,0.4c-0.1,0.2,0,0.4,0.1,0.5c0.4,0.5,1.6,3.1,2.2,2.8
			C41.3,34.1,42.8,35.7,44.5,34.5z"/>
		<path class="st11" d="M33.5,43.5c0.8,1.7,1.7,3.8,2.8,5.8c0.1,0.2,0.2,0.3,0.4,0.4c0,0,0,0,0.1,0c0.3,0,0.7-0.8,0.8-1.2
			c0-0.1,0.1-0.2,0.1-0.2l1-2.2c0.2-0.4,2.9-5.9,3-6.3c0-0.4-4.2,1.1-6-3.6c-0.4-1.2-1.6-2.4-3-3.3c-1.5-1-3.4-1.4-5.2-1.9
			c-0.5-0.1-1.1-0.2-1.6-0.4c-2.2-0.6-4.9-1.7-5.8-4c-0.8-2,0.1-4.1,1.1-6.2c-1.6,0.5-3.6,1.4-5,3.1c-1.4,1.7-1.8,3.8-1.2,5.6
			c1.1,2.9,4.8,4.3,7.4,5.1l0.7,0.2c3,0.9,6.1,1.8,7.9,4c0.6,0.8,1,1.6,1.4,2.5c0.1,0.3,0.2,0.5,0.3,0.8
			C32.9,42.2,33.2,42.9,33.5,43.5z"/>
	</g>
</g>
</svg>
