<?xml version="1.0" standalone="no"?>
<!DOCTYPE svg PUBLIC "-//W3C//DTD SVG 20010904//EN"
 "http://www.w3.org/TR/2001/REC-SVG-20010904/DTD/svg10.dtd">
<svg version="1.0" xmlns="http://www.w3.org/2000/svg"
 width="260.000000pt" height="260.000000pt" viewBox="0 0 260.000000 260.000000"
 preserveAspectRatio="xMidYMid meet">
<metadata>
Created by potrace 1.11, written by Peter Selinger 2001-2013
</metadata>
<g transform="translate(0.000000,260.000000) scale(0.100000,-0.100000)"
fill="#000000" stroke="none">
<path d="M1198 2585 c-2 -2 -34 -6 -73 -10 -38 -4 -72 -8 -76 -10 -3 -2 -21
-7 -40 -10 -59 -10 -205 -63 -281 -101 -120 -59 -233 -140 -326 -232 -134
-131 -208 -235 -278 -389 -26 -57 -73 -189 -79 -223 -1 -3 -4 -18 -8 -35 -6
-27 -9 -47 -22 -140 -6 -41 -6 -210 0 -266 4 -49 9 -78 29 -174 22 -108 107
-299 187 -419 63 -94 207 -243 303 -313 299 -220 715 -303 1071 -212 113 29
320 117 380 161 203 152 279 226 374 365 91 134 161 300 197 468 19 85 26 340
12 445 -35 267 -195 568 -400 755 -181 164 -420 284 -638 319 -19 3 -46 8 -60
11 -25 6 -267 14 -272 10z"/>
</g>
</svg>
